<svg xmlns="http://www.w3.org/2000/svg" width="640" height="360" viewBox="0 0 640 360" role="img"><rect width="640" height="360" fill="#ffffff"/><defs><marker id="ah" markerWidth="10" markerHeight="10" refX="8" refY="3" orient="auto" markerUnits="strokeWidth"><path d="M0,0 L9,3 L0,6 Z" fill="#1a1a1a"/></marker></defs><text x="320" y="36" text-anchor="middle" font-family="Georgia, 'Times New Roman', serif" font-size="20" fill="#1a1a1a">Activity timeline (days)</text><g font-family="Georgia, 'Times New Roman', serif" font-size="14" fill="#1a1a1a"><line x1="80" y1="150" x2="560" y2="150" stroke="#1a1a1a" stroke-width="1.6"/><g><line x1="80" y1="144" x2="80" y2="156" stroke="#1a1a1a" stroke-width="1.4"/><text x="80" y="176" text-anchor="middle">0</text></g><g><line x1="160" y1="144" x2="160" y2="156" stroke="#1a1a1a" stroke-width="1.4"/><text x="160" y="176" text-anchor="middle">2</text></g><g><line x1="240" y1="144" x2="240" y2="156" stroke="#1a1a1a" stroke-width="1.4"/><text x="240" y="176" text-anchor="middle">4</text></g><g><line x1="320" y1="144" x2="320" y2="156" stroke="#1a1a1a" stroke-width="1.4"/><text x="320" y="176" text-anchor="middle">6</text></g><g><line x1="400" y1="144" x2="400" y2="156" stroke="#1a1a1a" stroke-width="1.4"/><text x="400" y="176" text-anchor="middle">8</text></g><g><line x1="480" y1="144" x2="480" y2="156" stroke="#1a1a1a" stroke-width="1.4"/><text x="480" y="176" text-anchor="middle">10</text></g><g><line x1="560" y1="144" x2="560" y2="156" stroke="#1a1a1a" stroke-width="1.4"/><text x="560" y="176" text-anchor="middle">12</text></g></g><rect x="280" y="100" width="160" height="34" rx="6" fill="#dbeafe" stroke="#1d4ed8" stroke-width="2.5"/><text x="360" y="123" text-anchor="middle" font-family="Georgia, 'Times New Roman', serif" font-size="16" fill="#1d4ed8">duration = 4 days</text><line x1="280" y1="100" x2="280" y2="150" stroke="#1d4ed8" stroke-width="2" stroke-dasharray="6,4"/><line x1="440" y1="100" x2="440" y2="150" stroke="#1d4ed8" stroke-width="2" stroke-dasharray="6,4"/><text x="280" y="200" text-anchor="middle" font-family="Georgia, 'Times New Roman', serif" font-size="15" fill="#1d4ed8">ES = day 5</text><text x="440" y="200" text-anchor="middle" font-family="Georgia, 'Times New Roman', serif" font-size="15" fill="#1d4ed8">EF = day 9</text><line x1="440" y1="230" x2="560" y2="230" stroke="#1a1a1a" stroke-width="1.6"/><line x1="440" y1="224" x2="440" y2="236" stroke="#1a1a1a" stroke-width="1.6"/><line x1="560" y1="224" x2="560" y2="236" stroke="#1a1a1a" stroke-width="1.6"/><text x="500" y="222" text-anchor="middle" font-family="Georgia, 'Times New Roman', serif" font-size="16" fill="#1a1a1a">float</text><text x="560" y="262" text-anchor="middle" font-family="Georgia, 'Times New Roman', serif" font-size="15" fill="#1a1a1a">LF = day 12</text><text x="320" y="310" text-anchor="middle" font-family="Georgia, 'Times New Roman', serif" font-size="15" fill="#1a1a1a">Total float = LF − EF = 12 − 9 = 3 days</text></svg>
