<svg xmlns="http://www.w3.org/2000/svg" width="640" height="440" viewBox="0 0 640 440" role="img"><rect width="640" height="440" fill="#ffffff"/><defs><marker id="ah" markerWidth="10" markerHeight="10" refX="8" refY="3" orient="auto" markerUnits="strokeWidth"><path d="M0,0 L9,3 L0,6 Z" fill="context-stroke"/></marker><marker id="ahb" markerWidth="10" markerHeight="10" refX="8" refY="3" orient="auto" markerUnits="strokeWidth"><path d="M0,0 L9,3 L0,6 Z" fill="#1d4ed8"/></marker></defs><polygon points="80,120.0 560,294.7 560,374.7 80,200.0" fill="#f2f4f8" stroke="none"/><line x1="80" y1="120.0" x2="560" y2="294.70571244777716" stroke="#1a1a1a" stroke-width="2.5"/><line x1="80" y1="200.0" x2="560" y2="374.70571244777716" stroke="#1a1a1a" stroke-width="2.5" stroke-dasharray="8 5"/><text x="180" y="282" text-anchor="middle" font-family="Georgia, 'Times New Roman', serif" font-size="14" fill="#1a1a1a" >failure plane</text><line x1="280" y1="192.79404685324047" x2="280" y2="272.7940468532405" stroke="#1a1a1a" stroke-width="1.4" stroke-dasharray="6 4"/><line x1="360" y1="221.91166559453666" x2="360" y2="301.91166559453666" stroke="#1a1a1a" stroke-width="1.4" stroke-dasharray="6 4"/><line x1="320" y1="145.35285622388858" x2="320" y2="201.35285622388858" stroke="#1d4ed8" stroke-width="3" marker-end="url(#ahb)"/><text x="320" y="135.35285622388858" text-anchor="middle" font-family="Georgia, 'Times New Roman', serif" font-size="16" fill="#1d4ed8" >W</text><line x1="185" y1="190.2" x2="275" y2="223.0" stroke="#1d4ed8" stroke-width="2" stroke-dasharray="7 5" marker-end="url(#ahb)"/><text x="230" y="247" text-anchor="middle" font-family="Georgia, 'Times New Roman', serif" font-size="14" fill="#1d4ed8" >seepage</text><path d="M124.0,120.0 A44,44 0 0,1 121.3,135.0" fill="none" stroke="#1a1a1a" stroke-width="2"/><text x="120" y="200" text-anchor="middle" font-family="Georgia, 'Times New Roman', serif" font-size="15" fill="#1a1a1a" font-style="italic">β = 20°</text><line x1="604" y1="280.146903077129" x2="604" y2="360.146903077129" stroke="#1a1a1a" stroke-width="1.2"/><line x1="604" y1="282.146903077129" x2="604" y2="306.146903077129" stroke="#1a1a1a" stroke-width="1.6" marker-end="url(#ah)"/><line x1="604" y1="358.146903077129" x2="604" y2="334.146903077129" stroke="#1a1a1a" stroke-width="1.6" marker-end="url(#ah)"/><line x1="598" y1="280.146903077129" x2="610" y2="280.146903077129" stroke="#1a1a1a" stroke-width="1.2"/><line x1="598" y1="360.146903077129" x2="610" y2="360.146903077129" stroke="#1a1a1a" stroke-width="1.2"/><text x="594" y="320.146903077129" text-anchor="end" font-family="Georgia, 'Times New Roman', serif" font-size="16" fill="#1a1a1a" >z = 4 m</text><text x="170" y="336" text-anchor="middle" font-family="Georgia, 'Times New Roman', serif" font-size="15" fill="#1a1a1a" >c = 12 kPa</text><text x="170" y="360" text-anchor="middle" font-family="Georgia, 'Times New Roman', serif" font-size="15" fill="#1a1a1a" font-style="italic">φ = 25°</text><text x="170" y="384" text-anchor="middle" font-family="Georgia, 'Times New Roman', serif" font-size="15" fill="#1a1a1a" font-style="italic">γₛₐₜ = 20 kN/m³</text></svg>