<svg xmlns="http://www.w3.org/2000/svg" width="640" height="440" viewBox="0 0 640 440" role="img"><rect width="640" height="440" fill="#ffffff"/><defs><marker id="ahb" markerWidth="10" markerHeight="10" refX="8" refY="3" orient="auto" markerUnits="strokeWidth"><path d="M0,0 L9,3 L0,6 Z" fill="#1d4ed8"/></marker></defs><rect x="90" y="150" width="50" height="140" fill="#e5e7eb" stroke="#1a1a1a" stroke-width="2.5"/><rect x="500" y="150" width="50" height="140" fill="#e5e7eb" stroke="#1a1a1a" stroke-width="2.5"/><line x1="96" y1="150" x2="86" y2="164" stroke="#1a1a1a" stroke-width="1.4"/><line x1="110" y1="150" x2="100" y2="164" stroke="#1a1a1a" stroke-width="1.4"/><line x1="124" y1="150" x2="114" y2="164" stroke="#1a1a1a" stroke-width="1.4"/><line x1="506" y1="290" x2="516" y2="276" stroke="#1a1a1a" stroke-width="1.4"/><line x1="520" y1="290" x2="530" y2="276" stroke="#1a1a1a" stroke-width="1.4"/><line x1="534" y1="290" x2="544" y2="276" stroke="#1a1a1a" stroke-width="1.4"/><rect x="140" y="196" width="360" height="48" fill="#f2f4f8" stroke="#1a1a1a" stroke-width="2.5"/><text x="115" y="330" text-anchor="middle" font-family="Georgia, 'Times New Roman', serif" font-size="15" fill="#1a1a1a">rigid</text><text x="115" y="350" text-anchor="middle" font-family="Georgia, 'Times New Roman', serif" font-size="15" fill="#1a1a1a">support</text><text x="525" y="330" text-anchor="middle" font-family="Georgia, 'Times New Roman', serif" font-size="15" fill="#1a1a1a">rigid</text><text x="525" y="350" text-anchor="middle" font-family="Georgia, 'Times New Roman', serif" font-size="15" fill="#1a1a1a">support</text><text x="320" y="226" text-anchor="middle" font-family="Georgia, 'Times New Roman', serif" font-size="16" fill="#1a1a1a">steel bar, L = 3.0 m</text><text x="320" y="120" text-anchor="middle" font-family="Georgia, 'Times New Roman', serif" font-size="17" fill="#1a1a1a">Bar restrained between rigid supports</text><text x="320" y="150" text-anchor="middle" font-family="Georgia, 'Times New Roman', serif" font-size="16" fill="#1a1a1a">temperature rises 20°C → 50°C (ΔT = +30°C)</text><text x="320" y="392" text-anchor="middle" font-family="Georgia, 'Times New Roman', serif" font-size="18" fill="#1d4ed8">thermal stress σ = ?</text></svg>
