<svg xmlns="http://www.w3.org/2000/svg" width="640" height="440" viewBox="0 0 640 440" role="img" aria-label="Thin-walled closed rectangular tube cross-section, centerline 200 by 100 mm, wall 6 mm, torque 1.5 kN-m; find the shear stress"><rect width="640" height="440" fill="#ffffff"/><defs><marker id="ah" markerWidth="10" markerHeight="10" refX="8" refY="3" orient="auto" markerUnits="strokeWidth"><path d="M0,0 L9,3 L0,6 Z" fill="#1a1a1a"/></marker><marker id="ahb" markerWidth="10" markerHeight="10" refX="8" refY="3" orient="auto" markerUnits="strokeWidth"><path d="M0,0 L9,3 L0,6 Z" fill="#1d4ed8"/></marker></defs><!-- tube wall: outer and inner rectangles --><rect x="217" y="157" width="206" height="106" fill="#f3f4f6" stroke="#1a1a1a" stroke-width="2.5"/><rect x="223" y="163" width="194" height="94" fill="#ffffff" stroke="#1a1a1a" stroke-width="1.5"/><!-- centerline (dashed) --><rect x="220" y="160" width="200" height="100" fill="none" stroke="#1d4ed8" stroke-width="1.6" stroke-dasharray="6,4"/><text x="320" y="150" text-anchor="middle" font-family="Georgia, 'Times New Roman', serif" font-size="12" font-style="italic" fill="#1d4ed8">centerline</text><!-- torque: circular arrow around center --><path d="M 362,210 A 42,42 0 1,1 361.5,209" fill="none" stroke="#1d4ed8" stroke-width="2.5" marker-end="url(#ahb)"/><text x="320" y="304" text-anchor="middle" font-family="Georgia, 'Times New Roman', serif" font-size="16" fill="#1d4ed8">T = 1.5 kN·m</text><text x="320" y="336" text-anchor="middle" font-family="Georgia, 'Times New Roman', serif" font-size="21" font-weight="bold" fill="#1d4ed8">τ = ?</text><!-- centerline dimension: 200 mm --><line x1="220" y1="122" x2="420" y2="122" stroke="#1a1a1a" stroke-width="1.2"/><line x1="222" y1="122" x2="246" y2="122" stroke="#1a1a1a" stroke-width="1.6" marker-end="url(#ah)"/><line x1="418" y1="122" x2="394" y2="122" stroke="#1a1a1a" stroke-width="1.6" marker-end="url(#ah)"/><line x1="220" y1="116" x2="220" y2="128" stroke="#1a1a1a" stroke-width="1.2"/><line x1="420" y1="116" x2="420" y2="128" stroke="#1a1a1a" stroke-width="1.2"/><text x="320" y="112" text-anchor="middle" font-family="Georgia, 'Times New Roman', serif" font-size="15" fill="#1a1a1a">200 mm</text><!-- centerline dimension: 100 mm --><line x1="452" y1="160" x2="452" y2="260" stroke="#1a1a1a" stroke-width="1.2"/><line x1="452" y1="162" x2="452" y2="186" stroke="#1a1a1a" stroke-width="1.6" marker-end="url(#ah)"/><line x1="452" y1="258" x2="452" y2="234" stroke="#1a1a1a" stroke-width="1.6" marker-end="url(#ah)"/><line x1="446" y1="160" x2="458" y2="160" stroke="#1a1a1a" stroke-width="1.2"/><line x1="446" y1="260" x2="458" y2="260" stroke="#1a1a1a" stroke-width="1.2"/><text x="466" y="216" font-family="Georgia, 'Times New Roman', serif" font-size="15" fill="#1a1a1a">100 mm</text><!-- wall thickness callout --><line x1="218" y1="210" x2="150" y2="210" stroke="#1a1a1a" stroke-width="1.2"/><text x="142" y="215" text-anchor="end" font-family="Georgia, 'Times New Roman', serif" font-size="13" fill="#1a1a1a">t = 6 mm</text><text x="320" y="392" text-anchor="middle" font-family="Georgia, 'Times New Roman', serif" font-size="14" fill="#1a1a1a">Thin-walled closed rectangular tube — uniform wall thickness</text></svg>
