<svg xmlns="http://www.w3.org/2000/svg" width="640" height="440" viewBox="0 0 640 440" role="img" aria-label="300 mm by 200 mm plate with a 100 mm diameter hole; hole center 100 mm from the left edge and 60 mm from the bottom; x-bar from the left edge marked unknown"><rect width="640" height="440" fill="#ffffff"/><defs><marker id="ah" markerWidth="10" markerHeight="10" refX="8" refY="3" orient="auto" markerUnits="strokeWidth"><path d="M0,0 L9,3 L0,6 Z" fill="#1a1a1a"/></marker><marker id="ahb" markerWidth="10" markerHeight="10" refX="8" refY="3" orient="auto" markerUnits="strokeWidth"><path d="M0,0 L9,3 L0,6 Z" fill="#1d4ed8"/></marker></defs><!-- plate --><rect x="140" y="100" width="360" height="240" fill="#f3f4f6" stroke="#1a1a1a" stroke-width="2.5"/><!-- x-bar reference (schematic position) --><line x1="320" y1="100" x2="320" y2="340" stroke="#1a1a1a" stroke-width="1.4" stroke-dasharray="7,5"/><!-- hole centerlines --><line x1="200" y1="268" x2="320" y2="268" stroke="#9ca3af" stroke-width="1.2" stroke-dasharray="5,4"/><line x1="260" y1="208" x2="260" y2="328" stroke="#9ca3af" stroke-width="1.2" stroke-dasharray="5,4"/><!-- hole --><circle cx="260" cy="268" r="60" fill="#ffffff" stroke="#1a1a1a" stroke-width="2.5"/><text x="260" y="273" text-anchor="middle" font-family="Georgia, 'Times New Roman', serif" font-size="14" fill="#1a1a1a">d = 100 mm</text><!-- 100 mm hole-center dimension from left edge --><line x1="140" y1="185" x2="260" y2="185" stroke="#1a1a1a" stroke-width="1.2"/><line x1="142" y1="185" x2="116" y2="185" stroke="#1a1a1a" stroke-width="1.6" marker-end="url(#ah)"/><line x1="258" y1="185" x2="284" y2="185" stroke="#1a1a1a" stroke-width="1.6" marker-end="url(#ah)"/><line x1="140" y1="179" x2="140" y2="191" stroke="#1a1a1a" stroke-width="1.2"/><line x1="260" y1="179" x2="260" y2="191" stroke="#1a1a1a" stroke-width="1.2"/><text x="200" y="176" text-anchor="middle" font-family="Georgia, 'Times New Roman', serif" font-size="14" fill="#1a1a1a">100 mm</text><!-- 60 mm hole-center dimension from bottom edge --><line x1="340" y1="268" x2="340" y2="340" stroke="#1a1a1a" stroke-width="1.2"/><line x1="340" y1="270" x2="340" y2="246" stroke="#1a1a1a" stroke-width="1.6" marker-end="url(#ah)"/><line x1="340" y1="338" x2="340" y2="362" stroke="#1a1a1a" stroke-width="1.6" marker-end="url(#ah)"/><line x1="334" y1="268" x2="346" y2="268" stroke="#1a1a1a" stroke-width="1.2"/><line x1="334" y1="340" x2="346" y2="340" stroke="#1a1a1a" stroke-width="1.2"/><text x="360" y="304" text-anchor="middle" font-family="Georgia, 'Times New Roman', serif" font-size="14" fill="#1a1a1a" transform="rotate(-90 360 304)">60 mm</text><!-- 200 mm vertical dimension --><line x1="110" y1="100" x2="110" y2="340" stroke="#1a1a1a" stroke-width="1.2"/><line x1="110" y1="102" x2="110" y2="78" stroke="#1a1a1a" stroke-width="1.6" marker-end="url(#ah)"/><line x1="110" y1="338" x2="110" y2="362" stroke="#1a1a1a" stroke-width="1.6" marker-end="url(#ah)"/><line x1="104" y1="100" x2="116" y2="100" stroke="#1a1a1a" stroke-width="1.2"/><line x1="104" y1="340" x2="116" y2="340" stroke="#1a1a1a" stroke-width="1.2"/><text x="88" y="220" text-anchor="middle" font-family="Georgia, 'Times New Roman', serif" font-size="16" fill="#1a1a1a" transform="rotate(-90 88 220)">200 mm</text><!-- 300 mm width dimension --><line x1="140" y1="382" x2="500" y2="382" stroke="#1a1a1a" stroke-width="1.2"/><line x1="142" y1="382" x2="116" y2="382" stroke="#1a1a1a" stroke-width="1.6" marker-end="url(#ah)"/><line x1="498" y1="382" x2="524" y2="382" stroke="#1a1a1a" stroke-width="1.6" marker-end="url(#ah)"/><line x1="140" y1="376" x2="140" y2="388" stroke="#1a1a1a" stroke-width="1.2"/><line x1="500" y1="376" x2="500" y2="388" stroke="#1a1a1a" stroke-width="1.2"/><text x="320" y="374" text-anchor="middle" font-family="Georgia, 'Times New Roman', serif" font-size="16" fill="#1a1a1a">300 mm</text><!-- x-bar dimension from left edge --><line x1="140" y1="408" x2="320" y2="408" stroke="#1a1a1a" stroke-width="1.2"/><line x1="142" y1="408" x2="116" y2="408" stroke="#1a1a1a" stroke-width="1.6" marker-end="url(#ah)"/><line x1="318" y1="408" x2="344" y2="408" stroke="#1a1a1a" stroke-width="1.6" marker-end="url(#ah)"/><line x1="140" y1="402" x2="140" y2="414" stroke="#1a1a1a" stroke-width="1.2"/><line x1="320" y1="402" x2="320" y2="414" stroke="#1a1a1a" stroke-width="1.2"/><text x="230" y="400" text-anchor="middle" font-family="Georgia, 'Times New Roman', serif" font-size="16" fill="#1a1a1a">x-bar = ?</text></svg>
