<svg xmlns="http://www.w3.org/2000/svg" width="640" height="440" viewBox="0 0 640 440" role="img" aria-label="Beam AB pinned at A and fixed at B; a 60 kN-m moment is applied at A; find the moment carried over to B"><rect width="640" height="440" fill="#ffffff"/><defs><marker id="ah" markerWidth="10" markerHeight="10" refX="8" refY="3" orient="auto" markerUnits="strokeWidth"><path d="M0,0 L9,3 L0,6 Z" fill="#1a1a1a"/></marker><marker id="ahb" markerWidth="10" markerHeight="10" refX="8" refY="3" orient="auto" markerUnits="strokeWidth"><path d="M0,0 L9,3 L0,6 Z" fill="#1d4ed8"/></marker><pattern id="hatch" width="12" height="12" patternUnits="userSpaceOnUse" patternTransform="rotate(45)"><rect width="12" height="12" fill="#f3f4f6"/><line x1="0" y1="0" x2="0" y2="12" stroke="#9ca3af" stroke-width="1.6"/></pattern></defs><!-- beam --><rect x="140" y="230" width="420" height="12" fill="#ffffff" stroke="#1a1a1a" stroke-width="2.5"/><!-- pin support at A --><polygon points="123,266 157,266 140,242" fill="#ffffff" stroke="#1a1a1a" stroke-width="2"/><circle cx="140" cy="242" r="3.5" fill="#1a1a1a" stroke="#1a1a1a" stroke-width="2"/><line x1="109" y1="266" x2="171" y2="266" stroke="#1a1a1a" stroke-width="2.5"/><line x1="117" y1="266" x2="107" y2="278" stroke="#1a1a1a" stroke-width="1.4"/><line x1="139" y1="266" x2="129" y2="278" stroke="#1a1a1a" stroke-width="1.4"/><line x1="161" y1="266" x2="151" y2="278" stroke="#1a1a1a" stroke-width="1.4"/><!-- fixed wall at B --><rect x="500" y="160" width="60" height="150" fill="url(#hatch)" stroke="#1a1a1a" stroke-width="2.5"/><!-- support labels --><text x="140" y="222" text-anchor="middle" font-family="Georgia, 'Times New Roman', serif" font-size="18" fill="#1a1a1a">A</text><text x="478" y="222" text-anchor="middle" font-family="Georgia, 'Times New Roman', serif" font-size="18" fill="#1a1a1a">B</text><text x="140" y="300" text-anchor="middle" font-family="Georgia, 'Times New Roman', serif" font-size="13" fill="#1a1a1a">pin</text><text x="530" y="146" text-anchor="middle" font-family="Georgia, 'Times New Roman', serif" font-size="14" fill="#1a1a1a">fixed</text><!-- applied moment at A --><path d="M 112,192 A 28,28 0 1,1 168,192" fill="none" stroke="#1d4ed8" stroke-width="2.5" marker-end="url(#ahb)"/><text x="140" y="140" text-anchor="middle" font-family="Georgia, 'Times New Roman', serif" font-size="16" fill="#1d4ed8">60 kN·m</text><!-- carried-over moment at B --><path d="M 431,192 A 24,24 0 1,1 479,192" fill="none" stroke="#1d4ed8" stroke-width="2.5" marker-end="url(#ahb)"/><text x="455" y="140" text-anchor="middle" font-family="Georgia, 'Times New Roman', serif" font-size="18" font-weight="bold" fill="#1d4ed8">M<tspan dy="5" font-size="12">B</tspan><tspan dy="-5"> = ?</tspan></text><text x="320" y="392" text-anchor="middle" font-family="Georgia, 'Times New Roman', serif" font-size="14" fill="#1a1a1a">Prismatic beam AB — pin at A, fixed at B</text></svg>
