<svg xmlns="http://www.w3.org/2000/svg" width="640" height="440" viewBox="0 0 640 440" role="img"><rect width="640" height="440" fill="#ffffff"/><defs><marker id="ah" markerWidth="10" markerHeight="10" refX="8" refY="3" orient="auto" markerUnits="strokeWidth"><path d="M0,0 L9,3 L0,6 Z" fill="context-stroke"/></marker><marker id="ahb" markerWidth="10" markerHeight="10" refX="8" refY="3" orient="auto" markerUnits="strokeWidth"><path d="M0,0 L9,3 L0,6 Z" fill="#1d4ed8"/></marker></defs><line x1="80" y1="300" x2="380" y2="300" stroke="#1a1a1a" stroke-width="3"/><line x1="380" y1="300" x2="599" y2="202" stroke="#1a1a1a" stroke-width="3"/><path d="M270,300 Q380,300 480.5,255.3" fill="none" stroke="#1a1a1a" stroke-width="3"/><circle cx="380" cy="300" r="3.5" fill="#1a1a1a" stroke="#1a1a1a" stroke-width="2"/><circle cx="270" cy="300" r="3.5" fill="#1a1a1a" stroke="#1a1a1a" stroke-width="2"/><circle cx="480.5" cy="255.3" r="3.5" fill="#1a1a1a" stroke="#1a1a1a" stroke-width="2"/><text x="270" y="358" text-anchor="middle" font-family="Georgia, 'Times New Roman', serif" font-size="16" fill="#1a1a1a" >PC</text><text x="380" y="358" text-anchor="middle" font-family="Georgia, 'Times New Roman', serif" font-size="16" fill="#1a1a1a" >PI</text><text x="494" y="244" text-anchor="start" font-family="Georgia, 'Times New Roman', serif" font-size="16" fill="#1a1a1a" >PT</text><text x="377" y="272" text-anchor="middle" font-family="Georgia, 'Times New Roman', serif" font-size="14" fill="#1a1a1a" >R = 300 m</text><path d="M423.9,280.5 A48,48 0 0,1 428.0,300.0" fill="none" stroke="#1a1a1a" stroke-width="1.8"/><text x="458" y="288" text-anchor="middle" font-family="Georgia, 'Times New Roman', serif" font-size="15" fill="#1a1a1a" >I = 24°</text><line x1="270" y1="332" x2="380" y2="332" stroke="#1a1a1a" stroke-width="1.2"/><line x1="272" y1="332" x2="296" y2="332" stroke="#1a1a1a" stroke-width="1.6" marker-end="url(#ah)"/><line x1="378" y1="332" x2="354" y2="332" stroke="#1a1a1a" stroke-width="1.6" marker-end="url(#ah)"/><line x1="270" y1="326" x2="270" y2="338" stroke="#1a1a1a" stroke-width="1.2"/><line x1="380" y1="326" x2="380" y2="338" stroke="#1a1a1a" stroke-width="1.2"/><text x="325.0" y="324" text-anchor="middle" font-family="Georgia, 'Times New Roman', serif" font-size="16" fill="#1a1a1a" >T = ?</text></svg>