<svg xmlns="http://www.w3.org/2000/svg" width="640" height="440" viewBox="0 0 640 440" role="img" aria-label="Horizontal curve plan view with radius 300 m and intersection angle 24 degrees"><rect width="640" height="440" fill="#ffffff"/><defs><marker id="ah" markerWidth="10" markerHeight="10" refX="8" refY="3" orient="auto" markerUnits="strokeWidth"><path d="M0,0 L9,3 L0,6 Z" fill="#1a1a1a"/></marker><marker id="ahb" markerWidth="10" markerHeight="10" refX="8" refY="3" orient="auto" markerUnits="strokeWidth"><path d="M0,0 L9,3 L0,6 Z" fill="#1d4ed8"/></marker></defs><!-- tangents --><line x1="165.3" y1="180.1" x2="448.9" y2="240.4" stroke="#1a1a1a" stroke-width="2"/><line x1="351.1" y1="240.4" x2="634.7" y2="180.1" stroke="#1a1a1a" stroke-width="2"/><!-- curve --><path d="M 253.3,198.8 A 705.6 705.6 0 0 0 546.7,198.8" fill="none" stroke="#1a1a1a" stroke-width="2.8"/><!-- PI --><circle cx="400" cy="230" r="5" fill="#1a1a1a"/><text x="400" y="260" text-anchor="middle" font-family="Georgia, 'Times New Roman', serif" font-size="17" font-style="italic" fill="#1a1a1a">PI</text><!-- PC / PT --><circle cx="253.3" cy="198.8" r="5" fill="#1a1a1a"/><circle cx="546.7" cy="198.8" r="5" fill="#1a1a1a"/><text x="236" y="182" text-anchor="end" font-family="Georgia, 'Times New Roman', serif" font-size="17" font-style="italic" fill="#1a1a1a">PC</text><text x="560" y="182" text-anchor="start" font-family="Georgia, 'Times New Roman', serif" font-size="17" font-style="italic" fill="#1a1a1a">PT</text><!-- intersection angle arc --><path d="M 444,239.4 A 45 45 0 0 0 444,220.6" fill="none" stroke="#1d4ed8" stroke-width="1.8"/><text x="500" y="264" text-anchor="start" font-family="Georgia, 'Times New Roman', serif" font-size="16" fill="#1d4ed8">I = 24°</text><!-- external distance: dashed bisector + offset dimension --><line x1="400" y1="230" x2="400" y2="212" stroke="#1a1a1a" stroke-width="1.4" stroke-dasharray="5,4"/><line x1="424" y1="230" x2="424" y2="214.2" stroke="#1d4ed8" stroke-width="1.4"/><line x1="424" y1="224" x2="424" y2="230" stroke="#1d4ed8" stroke-width="1.6" marker-end="url(#ahb)"/><line x1="424" y1="220.2" x2="424" y2="214.2" stroke="#1d4ed8" stroke-width="1.6" marker-end="url(#ahb)"/><line x1="418" y1="230" x2="430" y2="230" stroke="#1d4ed8" stroke-width="1.2"/><line x1="418" y1="214.2" x2="430" y2="214.2" stroke="#1d4ed8" stroke-width="1.2"/><text x="436" y="272" text-anchor="start" font-family="Georgia, 'Times New Roman', serif" font-size="16" fill="#1d4ed8">E = ?</text><!-- radius label --><text x="400" y="184" text-anchor="middle" font-family="Georgia, 'Times New Roman', serif" font-size="16" fill="#1a1a1a">R = 300 m</text></svg>
