<svg xmlns="http://www.w3.org/2000/svg" width="640" height="440" viewBox="0 0 640 440" role="img"><rect width="640" height="440" fill="#ffffff"/><defs><marker id="ah" markerWidth="10" markerHeight="10" refX="8" refY="3" orient="auto" markerUnits="strokeWidth"><path d="M0,0 L9,3 L0,6 Z" fill="context-stroke"/></marker><marker id="ahb" markerWidth="10" markerHeight="10" refX="8" refY="3" orient="auto" markerUnits="strokeWidth"><path d="M0,0 L9,3 L0,6 Z" fill="#1d4ed8"/></marker></defs><rect x="80" y="150" width="480" height="190" fill="#bfdbfe" stroke="none"/><line x1="80" y1="150" x2="560" y2="150" stroke="#1a1a1a" stroke-width="1.6"/><rect x="380" y="230" width="16" height="110" fill="#9ca3af" stroke="#1a1a1a" stroke-width="2"/><text x="388" y="330" text-anchor="middle" font-family="Georgia, 'Times New Roman', serif" font-size="14" fill="#1a1a1a">weir</text><line x1="440" y1="150" x2="440" y2="230" stroke="#1a1a1a" stroke-width="1.2"/><line x1="440" y1="152" x2="440" y2="176" stroke="#1a1a1a" stroke-width="1.6" marker-end="url(#ah)"/><line x1="440" y1="228" x2="440" y2="204" stroke="#1a1a1a" stroke-width="1.6" marker-end="url(#ah)"/><line x1="434" y1="150" x2="446" y2="150" stroke="#1a1a1a" stroke-width="1.2"/><line x1="434" y1="230" x2="446" y2="230" stroke="#1a1a1a" stroke-width="1.2"/><text x="452" y="196" text-anchor="start" font-family="Georgia, 'Times New Roman', serif" font-size="16" fill="#1a1a1a">H = 0.30 m</text><text x="230" y="132" text-anchor="middle" font-family="Georgia, 'Times New Roman', serif" font-size="15" fill="#1a1a1a">water surface</text><text x="388" y="214" text-anchor="middle" font-family="Georgia, 'Times New Roman', serif" font-size="15" fill="#1a1a1a">crest</text><line x1="430" y1="120" x2="540" y2="120" stroke="#1d4ed8" stroke-width="2.5" marker-end="url(#ahb)"/><text x="485" y="110" text-anchor="middle" font-family="Georgia, 'Times New Roman', serif" font-size="16" fill="#1d4ed8">Q = ?</text><text x="230" y="392" text-anchor="middle" font-family="Georgia, 'Times New Roman', serif" font-size="15" fill="#1a1a1a">weir length L = 2.0 m (into page)</text></svg>
