<svg xmlns="http://www.w3.org/2000/svg" width="640" height="440" viewBox="0 0 640 440" role="img"><rect width="640" height="440" fill="#ffffff"/><defs><marker id="ah" markerWidth="10" markerHeight="10" refX="8" refY="3" orient="auto" markerUnits="strokeWidth"><path d="M0,0 L9,3 L0,6 Z" fill="context-stroke"/></marker><marker id="ahb" markerWidth="10" markerHeight="10" refX="8" refY="3" orient="auto" markerUnits="strokeWidth"><path d="M0,0 L9,3 L0,6 Z" fill="#1d4ed8"/></marker></defs><rect x="90" y="195" width="460" height="70" fill="#dbeafe" stroke="#1a1a1a" stroke-width="2"/><line x1="150" y1="230" x2="490" y2="230" stroke="#1d4ed8" stroke-width="3" marker-end="url(#ahb)"/><text x="150" y="216" text-anchor="middle" font-family="Georgia, 'Times New Roman', serif" font-size="16" fill="#1d4ed8" >V = 4 ft/s</text><line x1="90" y1="305" x2="550" y2="305" stroke="#1a1a1a" stroke-width="1.2"/><line x1="92" y1="305" x2="116" y2="305" stroke="#1a1a1a" stroke-width="1.6" marker-end="url(#ah)"/><line x1="548" y1="305" x2="524" y2="305" stroke="#1a1a1a" stroke-width="1.6" marker-end="url(#ah)"/><line x1="90" y1="299" x2="90" y2="311" stroke="#1a1a1a" stroke-width="1.2"/><line x1="550" y1="299" x2="550" y2="311" stroke="#1a1a1a" stroke-width="1.2"/><text x="320.0" y="297" text-anchor="middle" font-family="Georgia, 'Times New Roman', serif" font-size="16" fill="#1a1a1a" >L = 1,000 ft</text><line x1="590" y1="195" x2="590" y2="265" stroke="#1a1a1a" stroke-width="1.2"/><line x1="590" y1="197" x2="590" y2="221" stroke="#1a1a1a" stroke-width="1.6" marker-end="url(#ah)"/><line x1="590" y1="263" x2="590" y2="239" stroke="#1a1a1a" stroke-width="1.6" marker-end="url(#ah)"/><line x1="584" y1="195" x2="596" y2="195" stroke="#1a1a1a" stroke-width="1.2"/><line x1="584" y1="265" x2="596" y2="265" stroke="#1a1a1a" stroke-width="1.2"/><text x="590" y="289" text-anchor="middle" font-family="Georgia, 'Times New Roman', serif" font-size="17" fill="#1a1a1a" >D = 1 ft</text><text x="320" y="168" text-anchor="middle" font-family="Georgia, 'Times New Roman', serif" font-size="16" fill="#1a1a1a" >f = 0.02</text><text x="320" y="330" text-anchor="middle" font-family="Georgia, 'Times New Roman', serif" font-size="15" fill="#1a1a1a" >g = 32.2 ft/s2</text><text x="320" y="356" text-anchor="middle" font-family="Georgia, 'Times New Roman', serif" font-size="19" fill="#1d4ed8" >h&#95;f = ?</text></svg>